<svg xmlns="http://www.w3.org/2000/svg" version="1.0" width="100" height="100" preserveAspectRatio="xMidYMid meet"><rect id="backgroundrect" width="100%" height="100%" x="0" y="0" fill="none" stroke="none"/>


<g class="currentLayer" style=""><title>Layer 1</title><g transform="translate(0,100) scale(0.10000000149011612,-0.10000000149011612) " fill="#ff001d" stroke="none" id="svg_1" class="selected" fill-opacity="1">
<path d="M570 911 c-14 -4 -35 -22 -47 -40 l-22 -32 -15 29 c-16 32 -34 42 -72 42 -30 0 -31 -18 -1 -29 13 -5 29 -16 36 -25 12 -14 11 -16 -7 -16 -12 0 -28 -10 -36 -21 -14 -21 -16 -21 -40 -5 -14 9 -30 16 -36 16 -18 0 -11 -29 10 -40 11 -6 20 -18 21 -28 0 -11 2 -13 6 -4 3 7 -5 25 -18 39 l-24 26 23 -12 c13 -7 27 -22 31 -35 11 -28 37 -50 45 -37 4 5 2 12 -4 16 -14 9 -13 48 2 63 7 7 20 12 31 12 30 0 16 33 -23 52 -38 19 -28 24 14 8 15 -5 31 -21 38 -35 15 -33 34 -32 46 4 7 18 21 32 41 39 39 14 40 2 1 -20 -29 -17 -41 -48 -18 -48 6 0 20 -7 30 -17 11 -10 18 -12 18 -4 0 6 -11 17 -25 23 -33 15 -32 27 5 41 47 18 39 50 -10 38z" id="svg_2" fill="#ff001d"/>
<path d="M633 813 c-13 -8 -23 -25 -23 -37 0 -14 -3 -17 -8 -9 -6 9 -11 6 -20 -8 -12 -18 -11 -20 5 -17 9 2 23 13 29 26 6 12 19 31 29 42 21 24 18 25 -12 3z" id="svg_3" fill="#ff001d"/>
<path d="M653 799 c-13 -15 -23 -31 -23 -37 0 -5 -9 -17 -20 -27 -22 -20 -23 -24 -12 -42 6 -9 36 -3 117 23 62 19 143 37 186 41 67 5 77 4 83 -12 4 -11 -3 -30 -19 -52 -36 -46 -162 -133 -194 -133 -28 0 -66 21 -121 69 l-35 30 25 10 c14 5 18 10 10 10 -8 0 -22 -4 -30 -9 -12 -7 -11 -13 10 -36 45 -48 102 -84 134 -84 38 0 121 52 188 117 36 35 46 53 46 76 l-1 30 -86 -6 c-58 -4 -121 -17 -194 -40 -108 -35 -139 -34 -98 4 12 11 21 26 21 34 0 8 9 21 21 29 12 8 20 19 18 24 -2 5 -14 -3 -26 -19z" id="svg_4" fill="#ff001d"/>
<path d="M425 797 c-4 -10 -5 -21 -1 -24 10 -10 18 4 13 24 -4 17 -4 17 -12 0z" id="svg_5" fill="#ff001d"/>
<path d="M460 801 c0 -5 -3 -16 -6 -24 -4 -12 6 -16 45 -18 40 -3 50 -1 46 9 -3 8 -5 20 -5 28 0 10 -12 14 -40 14 -22 0 -40 -4 -40 -9z m70 -16 c0 -10 -10 -15 -30 -15 -20 0 -30 5 -30 15 0 10 10 15 30 15 20 0 30 -5 30 -15z" id="svg_6" fill="#ff001d"/>
<path d="M555 800 c-7 -12 2 -30 16 -30 12 0 12 27 0 35 -5 3 -12 1 -16 -5z" id="svg_7" fill="#ff001d"/>
<path d="M80 760 c51 -5 133 -24 205 -48 112 -36 120 -38 123 -20 4 21 -14 48 -31 48 -6 0 -3 -6 8 -13 10 -8 15 -19 12 -25 -5 -7 -44 2 -115 24 -80 27 -129 36 -197 39 l-90 4 85 -9z" id="svg_8" fill="#ff001d"/>
<path d="M38 743 c12 -2 32 -2 45 0 12 2 2 4 -23 4 -25 0 -35 -2 -22 -4z" id="svg_9" fill="#ff001d"/>
<path d="M908 743 c12 -2 32 -2 45 0 12 2 2 4 -23 4 -25 0 -35 -2 -22 -4z" id="svg_10" fill="#ff001d"/>
<path d="M0 729 c0 -20 99 -116 157 -152 53 -34 90 -34 139 -1 43 29 94 74 94 84 0 8 -110 43 -116 38 -2 -3 21 -12 51 -22 l54 -17 -42 -38 c-80 -73 -108 -77 -187 -25 -69 46 -107 81 -131 119 -12 18 -19 24 -19 14z" id="svg_11" fill="#ff001d"/>
<path d="M128 733 c6 -2 18 -2 25 0 6 3 1 5 -13 5 -14 0 -19 -2 -12 -5z" id="svg_12" fill="#ff001d"/>
<path d="M435 724 c-11 -11 -15 -30 -13 -58 l3 -41 72 -5 c78 -5 83 -3 83 49 0 33 -26 71 -48 70 -13 0 -11 -3 5 -9 23 -9 37 -45 31 -77 -3 -15 -15 -19 -71 -21 l-67 -3 0 40 c0 30 6 44 22 55 12 9 17 16 11 16 -6 0 -19 -7 -28 -16z" id="svg_13" fill="#ff001d"/>
<path d="M815 730 c-14 -7 -8 -8 20 -3 22 3 42 7 44 9 9 8 -45 2 -64 -6z" id="svg_14" fill="#ff001d"/>
<path d="M185 720 c11 -5 27 -9 35 -9 9 0 8 4 -5 9 -11 5 -27 9 -35 9 -9 0 -8 -4 5 -9z" id="svg_15" fill="#ff001d"/>
<path d="M715 700 c-27 -10 -43 -18 -35 -18 8 0 38 8 65 18 28 10 43 18 35 18 -8 0 -37 -8 -65 -18z" id="svg_16" fill="#ff001d"/>
<path d="M8 673 c17 -32 172 -148 172 -129 0 3 -13 12 -29 21 -16 8 -58 41 -92 72 -34 32 -57 48 -51 36z" id="svg_17" fill="#ff001d"/>
<path d="M959 654 c-43 -45 -146 -114 -170 -114 -10 0 -20 -4 -24 -9 -8 -14 51 4 84 25 57 36 123 90 137 111 20 32 13 29 -27 -13z" id="svg_18" fill="#ff001d"/>
<path d="M374 617 c-10 -12 -12 -16 -4 -9 8 6 19 12 25 12 5 0 1 -7 -9 -15 -10 -8 -23 -12 -28 -9 -5 4 -20 -4 -33 -16 -13 -12 -40 -28 -62 -35 -32 -12 -34 -14 -13 -15 14 0 36 7 48 16 21 14 22 14 22 -11 0 -19 -9 -31 -35 -46 -36 -21 -43 -33 -25 -44 5 -3 8 0 5 7 -2 7 10 22 28 33 19 12 33 30 35 45 4 28 19 50 34 50 6 0 5 -7 -2 -15 -8 -10 -9 -15 -2 -15 6 0 9 -7 5 -16 -4 -12 -8 -13 -13 -3 -5 7 -8 -25 -9 -71 -1 -79 -2 -85 -41 -141 -43 -63 -48 -79 -26 -79 8 0 27 20 43 45 15 24 31 44 34 45 4 0 10 -17 13 -37 18 -102 75 -203 114 -203 12 0 9 4 -8 13 -34 17 -73 92 -94 183 l-18 76 -34 -50 c-18 -28 -39 -54 -45 -58 -16 -9 -10 2 34 67 32 47 39 67 42 117 4 61 27 134 52 163 11 14 11 18 0 28 -11 8 -18 6 -33 -12z" id="svg_19" fill="#ff001d"/>
<path d="M590 625 c-10 -12 -6 -18 22 -35 18 -11 36 -20 41 -20 4 0 7 -6 7 -14 0 -8 4 -18 10 -21 6 -3 7 1 4 9 -8 20 5 20 30 1 11 -8 27 -15 35 -15 9 1 2 7 -16 15 -18 7 -52 32 -76 54 -38 35 -46 39 -57 26z m46 -33 c-3 -2 -14 2 -25 10 -12 8 -18 18 -14 21 3 4 15 0 25 -10 10 -9 16 -18 14 -21z" id="svg_20" fill="#ff001d"/>
<path d="M413 567 c-47 -69 -49 -67 86 -67 l122 0 -12 23 c-22 42 -50 77 -62 77 -8 0 -9 -3 -2 -8 13 -8 55 -67 55 -76 0 -3 -47 -6 -105 -6 l-106 0 12 23 c6 12 21 32 32 45 11 12 16 22 11 22 -5 0 -19 -15 -31 -33z" id="svg_21" fill="#ff001d"/>
<path d="M611 553 c21 -28 23 -29 16 -10 -4 10 -3 16 1 13 5 -3 10 -44 11 -91 2 -90 6 -102 63 -176 15 -20 24 -40 20 -44 -4 -5 -2 -5 5 -2 7 5 -3 29 -33 73 l-44 66 2 85 c2 86 -4 102 -41 103 -11 0 -11 -3 0 -17z" id="svg_22" fill="#ff001d"/>
<path d="M198 533 c7 -3 16 -2 19 1 4 3 -2 6 -13 5 -11 0 -14 -3 -6 -6z" id="svg_23" fill="#ff001d"/>
<path d="M670 510 c0 -5 9 -14 21 -20 11 -7 18 -14 16 -17 -3 -2 -15 0 -26 7 -12 6 -21 8 -21 6 0 -3 14 -13 31 -22 17 -8 28 -11 25 -5 -4 6 -3 11 3 11 5 0 12 -6 14 -12 4 -9 6 -8 6 2 0 8 -15 25 -34 37 -19 12 -35 18 -35 13z" id="svg_24" fill="#ff001d"/>
<path d="M300 469 l-25 -20 33 16 c17 8 32 18 32 20 0 10 -16 4 -40 -16z" id="svg_25" fill="#ff001d"/>
<path d="M370 440 l0 -40 120 0 c66 0 123 0 128 -1 10 0 15 29 8 57 -6 24 -7 24 -131 24 l-125 0 0 -40z m244 15 c15 -39 -2 -45 -120 -45 l-114 0 0 30 0 30 114 0 c92 0 115 -3 120 -15z" id="svg_26" fill="#ff001d"/>
<path d="M491 373 l115 -4 -4 -29 -4 -30 -103 0 c-103 0 -104 0 -108 25 -4 23 -4 23 -3 -2 l1 -28 98 -3 c93 -3 97 -4 97 -25 -1 -62 -7 -67 -85 -67 -67 0 -73 2 -79 23 -9 33 -8 35 17 40 19 4 18 4 -5 6 -31 1 -34 -11 -18 -53 9 -25 14 -26 79 -26 77 0 82 -8 38 -58 -27 -29 -40 -28 -71 9 -14 17 -26 26 -26 21 0 -12 50 -62 62 -62 38 0 98 97 100 161 1 15 5 26 10 23 4 -3 8 5 8 18 0 13 3 33 6 46 l6 22 -123 -2 -124 -2 116 -3z" id="svg_27" fill="#ff001d"/>
<path d="M630 341 c0 -5 3 -11 8 -13 4 -1 22 -23 41 -48 40 -54 38 -42 -4 23 -29 44 -45 58 -45 38z" id="svg_28" fill="#ff001d"/>
<path d="M622 300 c0 -14 2 -19 5 -12 2 6 2 18 0 25 -3 6 -5 1 -5 -13z" id="svg_29" fill="#ff001d"/>
<path d="M508 273 c6 -2 18 -2 25 0 6 3 1 5 -13 5 -14 0 -19 -2 -12 -5z" id="svg_30" fill="#ff001d"/>
<path d="M606 244 c-4 -14 -5 -28 -3 -31 3 -2 8 8 11 23 4 14 5 28 3 31 -3 2 -8 -8 -11 -23z" id="svg_31" fill="#ff001d"/>
<path d="M585 180 c-4 -11 -22 -37 -41 -55 -19 -19 -30 -35 -24 -35 22 0 90 94 77 107 -3 2 -8 -5 -12 -17z" id="svg_32" fill="#ff001d"/>
</g></g></svg>